<svg width="64" height="64" viewBox="0 0 64 64" xmlns="http://www.w3.org/2000/svg" aria-hidden="true">
  <defs>
    <linearGradient id="bg" x1="8" y1="8" x2="56" y2="56" gradientUnits="userSpaceOnUse">
      <stop stop-color="#1D4ED8"/>
      <stop offset="1" stop-color="#22D3EE"/>
    </linearGradient>
  </defs>
  <rect x="4" y="4" width="56" height="56" rx="14" fill="url(#bg)"/>
  <path d="M32 10c-5 5-10 11-10 18 0 7.5 6.2 14 10 16 3.8-2 10-8.5 10-16 0-7-5-13-10-18Z" fill="#FFFFFF"/>
  <path d="M32 22c-3 3-6 6.5-6 11 0 4.2 3.2 7.5 6 9 2.8-1.5 6-4.8 6-9 0-4.5-3-8-6-11Z" fill="#E0F2FE"/>
  <circle cx="32" cy="47" r="3" fill="#0EA5E9" opacity="0.85"/>
</svg>
